<svg id="Capa_1" enable-background="new 0 0 511.956 511.956" height="512" viewBox="0 0 511.956 511.956" width="512" xmlns="http://www.w3.org/2000/svg"><g><g><path d="m493.733 53.807-52.319 307.228-287.91-287.909 307.228-52.319c19.433-3.31 36.31 13.568 33.001 33z" fill="#5993af"/><path d="m375.485 385.266c8.045-8.045 11.078-19.202 9.104-29.595 11.919-5.002 20.291-16.781 20.291-30.517 0-5.351-1.278-10.401-3.534-14.873 10.769-5.457 18.155-16.623 18.155-29.521 0-7.558-2.54-14.52-6.805-20.091 8.54-5.982 14.129-15.89 14.129-27.108 0-6.685-1.989-12.902-5.399-18.105 6.85-6.061 11.174-14.913 11.174-24.779 0-7.529-2.52-14.467-6.755-20.027 4.35-5.601 6.948-12.631 6.948-20.272 0-7.758-2.677-14.886-7.149-20.527 3.215-11.19.42-23.743-8.396-32.559s-21.368-11.611-32.559-8.396c-5.641-4.471-12.77-7.149-20.527-7.149-7.641 0-14.671 2.597-20.272 6.948-5.56-4.236-12.498-6.755-20.027-6.755-9.866 0-18.717 4.324-24.779 11.174-5.203-3.409-11.42-5.399-18.105-5.399-11.218 0-21.125 5.589-27.108 14.129-5.571-4.266-12.532-6.805-20.091-6.805-12.898 0-24.064 7.386-29.521 18.155-4.472-2.256-9.522-3.534-14.873-3.534-13.736 0-25.515 8.372-30.517 20.291-10.394-1.974-21.55 1.059-29.595 9.104-9.284 9.284-11.896 22.712-7.838 34.329-4.22 5.554-6.73 12.48-6.73 19.994 0 15.974 11.321 29.302 26.377 32.402-.517 9.085 2.689 18.343 9.63 25.284 5.294 5.294 11.937 8.415 18.823 9.371 2.021 14.61 13.578 26.166 28.188 28.188.955 6.886 4.076 13.529 9.371 18.823s11.937 8.415 18.823 9.371c2.022 14.61 13.578 26.166 28.188 28.188.955 6.886 4.076 13.528 9.371 18.823 6.941 6.941 16.199 10.147 25.284 9.63 3.1 15.056 16.429 26.377 32.402 26.377 7.514 0 14.44-2.509 19.994-6.73 11.616 4.058 25.044 1.445 34.328-7.839z" fill="#fff"/><g><path d="m395.419 216.036-84.442 30.098c-39.288 14.004-59.785 57.205-45.781 96.493l5.509 15.456c6.163 17.29 25.175 26.31 42.465 20.147l164.104-58.493c17.29-6.163 26.31-25.175 20.147-42.465l-5.509-15.456c-14.004-39.287-57.205-59.784-96.493-45.78z" fill="#ff926f"/></g><path d="m158.552 129.538c-14.956-11.372-16.018-33.294-2.521-46.365 10.372-10.046 19.331-21.514 26.459-34.184 8.015-14.248 20.652-26.09 37.025-33.018 16.132-6.826 33.492-7.638 49.44-3.401l-56.343 158.073z" fill="#daf092"/><path d="m172.753 139.779c23.012-13.812 42.413-33.106 55.571-56.497 8.015-14.248 20.652-26.09 37.026-33.018 16.132-6.826 33.492-7.638 49.44-3.401l-56.343 158.073c-35.227-12.556-73.963 5.822-86.519 41.049s5.822 73.963 41.049 86.519l-20.92 58.692c-69.428-28.316-104.918-106.557-79.49-177.896 11.402-31.993 33.174-57.309 60.186-73.521z" fill="#daf092"/><g><path d="m50.835 500.253 390.579-139.217-287.91-287.91-139.217 390.578c-8.098 22.719 13.829 44.646 36.548 36.549z" fill="#5993af"/><path d="m219.077 232.338-201.14 257.562c6.968 9.696 19.794 15.022 32.897 10.352l390.58-139.218-134.104-134.103c-25.065-25.065-66.416-22.531-88.233 5.407z" fill="#7aa9bf"/></g></g><g><path d="m506.841 273.916-5.509-15.456c-5.354-15.02-14.506-27.615-25.988-37.103l28.247-165.871c2.098-12.316-1.925-24.943-10.759-33.777-8.835-8.836-21.463-12.857-33.779-10.76l-147.01 25.035c-13.784-2.743-28.087-2.102-41.47 1.831l7.801-21.888c.938-2.634.731-5.54-.57-8.014-1.302-2.475-3.58-4.291-6.282-5.008-18.533-4.924-38.387-3.555-55.903 3.856-17.9 7.574-32.37 20.48-41.845 37.324-3.409 6.06-7.314 11.888-11.661 17.43l-10.287 1.752c-3.566.607-6.526 3.093-7.741 6.5l-38.937 109.237c-1.854 5.202.86 10.923 6.062 12.777 1.109.396 2.243.583 3.357.583 4.109 0 7.961-2.553 9.42-6.646l33.627-94.342 108.288 108.288c-1.51-.007-3.022.018-4.539.111-19.722 1.208-38.008 10.833-50.169 26.405l-186.965 239.416 69.534-195.08c1.854-5.202-.86-10.923-6.062-12.777-5.201-1.854-10.923.859-12.777 6.062l-70.057 196.546c-5.056 14.185-1.581 29.611 9.066 40.259 7.415 7.415 17.146 11.351 27.161 11.351 4.368 0 8.791-.749 13.099-2.284l390.578-139.217c3.407-1.214 5.894-4.174 6.501-7.74l4.187-24.584 25.172-8.972c10.879-3.877 19.596-11.759 24.546-22.193 4.95-10.436 5.541-22.173 1.664-33.051zm-44.43-243.251c6.022-1.026 11.957.864 16.279 5.186 4.321 4.321 6.211 10.254 5.185 16.278l-26.845 157.637c-5.296-2.481-10.845-4.423-16.556-5.785 1.39-4.276 2.125-8.769 2.125-13.304 0-7.058-1.677-13.848-4.896-19.97 3.345-6.212 5.088-13.125 5.088-20.329 0-7.993-2.261-15.869-6.438-22.639 2.254-13.618-2.146-27.628-12.035-37.519-9.89-9.889-23.899-14.291-37.519-12.035-6.771-4.177-14.646-6.438-22.64-6.438-7.204 0-14.117 1.743-20.329 5.088-6.121-3.219-12.91-4.896-19.969-4.896-2.559 0-5.09.241-7.573.686l6.423-18.172zm-54.422 282.803-24.258-24.257c4.705-19.693 5.075-39.773 1.11-58.788l13.934-4.967c8.71-3.105 17.782-4.3 26.735-3.648 1.073 30.318-4.923 61.632-17.521 91.66zm-42.19-76.258c2.107 11.405 2.379 23.065.807 34.874l-25.922-25.922zm-64.34-182.642-39.793 112.578-47.721-47.721c9.009-9.533 16.771-19.997 23.095-31.24 7.284-12.95 18.421-22.878 32.206-28.711 10.278-4.348 21.248-5.999 32.213-4.906zm-110.253-.677c7.284-12.95 18.421-22.878 32.206-28.711 10.267-4.344 21.224-5.998 32.182-4.909l-10.692 29.997c-10.354 7.329-18.948 16.831-25.292 28.11-5.431 9.656-12.086 18.665-19.807 26.902l-26.22-26.22c6.711-7.86 12.628-16.291 17.623-25.169zm86.134 128.928 29.447-83.309c4.377-4.812 10.579-7.57 17.076-7.57 5.093 0 9.922 1.628 13.966 4.71 3.607 2.747 8.612 2.725 12.195-.057 4.08-3.17 8.969-4.845 14.137-4.845 5.251 0 10.201 1.724 14.315 4.985 2.529 2.005 5.868 2.666 8.974 1.775 8.08-2.324 16.791-.079 22.727 5.855 5.935 5.935 8.178 14.643 5.855 22.727-.892 3.102-.23 6.444 1.774 8.973 3.262 4.114 4.985 9.064 4.985 14.315 0 5.168-1.675 10.057-4.845 14.137-2.782 3.582-2.806 8.587-.058 12.194 3.081 4.045 4.71 8.875 4.71 13.968 0 3.902-.954 7.633-2.776 10.978-9.229.095-18.593 1.693-27.762 4.961l-67.031 23.892zm-229.862 308.014c-5.609 1.998-11.422 1.312-16.196-1.774l195.676-250.567c8.637-11.059 21.622-17.895 35.628-18.752 14.02-.861 27.73 4.34 37.652 14.263l122.922 122.922zm426.439-180.514-50.612 18.04c15.04-33.064 22.656-67.88 22.314-101.809 1.088.448 2.17.919 3.241 1.428 15.812 7.502 27.756 20.712 33.632 37.198l5.509 15.456c4.302 12.067-2.016 25.385-14.084 29.687z"/><path d="m344.794 146.332h5.716c5.522 0 10-4.477 10-10s-4.478-10-10-10h-5.716c-5.522 0-10 4.477-10 10s4.478 10 10 10z"/><path d="m326.284 187.12c5.522 0 10-4.477 10-10s-4.478-10-10-10h-5.717c-5.522 0-10 4.477-10 10s4.478 10 10 10z"/><path d="m381.328 186.198c5.522 0 10-4.477 10-10v-5.451c0-5.523-4.478-10-10-10s-10 4.477-10 10v5.451c0 5.523 4.477 10 10 10z"/><circle cx="99.455" cy="224.761" r="10"/></g></g></svg>