<svg id="Capa_1" enable-background="new 0 0 512.051 512.051" height="512" viewBox="0 0 512.051 512.051" width="512" xmlns="http://www.w3.org/2000/svg"><g><path d="m416.386 398.981c74.505 0 113.622-89.23 62.444-143.376-55.879-59.118-135.028-96.007-222.798-96.007s-166.919 36.888-222.798 96.007c-51.179 54.146-12.062 143.376 62.444 143.376z" fill="#fff"/><g><path d="m466.851 269.14c-2.082-26.078-22.534-46.275-47.636-48.938-5.52 9.219-8.338 20.175-7.417 31.702 2.082 26.078 22.534 46.275 47.636 48.938 5.52-9.219 8.338-20.175 7.417-31.702z" fill="#ff9eb2"/><path d="m415.998 218.905c6.612 24.361 29.799 41.349 55.877 39.267 11.527-.92 21.898-5.441 30.123-12.354-6.612-24.361-29.799-41.349-55.877-39.266-11.526.92-21.897 5.44-30.123 12.353z" fill="#ff9eb2"/><path d="m202.372 233.218c61.842-13.95 123.561-11.905 180.835 3.399 35.689 9.536 59.464-36.408 30.982-59.932-63.79-52.686-150.409-76.334-237.363-56.72-45.12 10.178-85.157 30.837-118.128 58.834-46.407 39.407 2.222 112.874 56.618 85.532 27.054-13.599 56.186-24.149 87.056-31.113z" fill="#ffdfe5"/><g fill="#ff7d99"><path d="m362.599 230.343s-.161.465-.417 1.301c7.068 1.461 14.08 3.118 21.025 4.973 35.689 9.536 59.464-36.408 30.982-59.932-7.341-6.063-14.987-11.736-22.899-17.009l-1.028 1.055c-22.822 15.554-33.533 41.489-27.663 69.612z"/><path d="m253.628 114.952c-23.692 32.885-26.766 74.136-9.277 110.35l54.31-3.956c-5.193-35.576 7.262-67.369 31.862-91.513z"/><path d="m94.284 154.11c-5.135 38.233 10.049 76.102 41.279 100.506l52.828-19.054c-25.591-34.786-27.71-79.017-8.136-115.746z"/></g></g><g><path d="m496.299 261.498c4.301-2.184 8.37-4.862 12.134-8.025 2.982-2.506 4.237-6.516 3.217-10.274-7.991-29.442-35.884-49.049-66.323-46.615-2.973.237-5.897.688-8.769 1.325-1.25-10.954-6.719-21.268-16-28.933-33.058-27.304-72.463-47.176-113.956-57.469-43.523-10.797-87.926-11.233-131.977-1.296-45.079 10.168-87.404 31.25-122.399 60.966-12.854 10.915-20.415 24.932-21.866 40.536-.883 9.492.589 19.207 4.189 28.3-2.917 2.858-5.793 5.773-8.582 8.724-26.322 27.847-33.218 67.093-17.998 102.421 15.366 35.666 48.974 57.822 87.709 57.822h115.559c5.523 0 10-4.477 10-10s-4.477-10-10-10h-115.559c-30.618 0-57.188-17.525-69.341-45.735-12.008-27.873-6.581-58.823 14.165-80.771 1.497-1.584 3.025-3.153 4.566-4.713 7.716 9.33 17.767 16.267 28.897 19.812 5.711 1.819 11.557 2.724 17.443 2.724 9.498 0 19.099-2.356 28.399-7.031 26.752-13.447 55.271-23.639 84.765-30.292 58.063-13.098 118.942-11.956 176.053 3.305 7.171 1.916 14.32 2.07 21.012.66-.019 1.914.038 3.835.192 5.761 2.431 30.44 26.213 54.869 56.549 58.086.354.038.707.056 1.057.056 3.488 0 6.759-1.826 8.577-4.862 6.76-11.291 9.806-24.182 8.826-37.301 16.519 21.603 19.854 49.978 8.495 75.462-12.328 27.658-38.747 44.84-68.948 44.84h-115.226c-5.523 0-10 4.477-10 10s4.477 10 10 10h115.228c38.209 0 71.628-21.725 87.216-56.698 13.546-30.393 10.582-64.063-7.304-90.785zm-188.377-46.943c-2.55-27.333 6.26-52.561 25.681-73.539 14.066 5.444 27.692 12.081 40.672 19.805-16.144 15.336-24.347 36.078-23.156 58.585-14.286-2.425-28.714-4.037-43.197-4.851zm-170.423 28.684c-24.412-21.228-36.813-52.039-33.733-84.015 18.72-10.838 38.783-19.425 59.642-25.48-10.841 32.288-7.397 67.286 9.775 96.831-12.112 3.652-24.026 7.875-35.684 12.664zm-79.95-2.157c-10.167-15.353-11.752-38.209 7.622-54.661 5.844-4.962 11.911-9.661 18.17-14.093.858 29.954 12.982 58.196 34.317 79.727-2.288 1.094-4.569 2.202-6.833 3.34-22.699 11.411-43.114 1.034-53.276-14.313zm142.623-17.619c-2.296.518-4.583 1.062-6.867 1.621-19.039-29.091-21.326-65.499-5.987-97.091 16.484-3.192 33.006-4.824 49.494-4.901-15.574 29.297-17.904 63.181-6.417 94.812-10.134 1.455-20.218 3.302-30.223 5.559zm50.754-7.953c-12.696-30.594-9.566-64.164 8.63-91.542 14.144 1.167 28.237 3.479 42.231 6.95 3.834.951 7.642 2.015 11.433 3.14-18.627 23.14-27.461 50.829-25.401 79.878-12.305-.058-24.62.47-36.893 1.574zm134.863 11.446c-4.716-1.26-9.458-2.418-14.219-3.495-2.649-20.137 4.666-38.761 20.139-51.339 5.522 3.893 10.908 7.975 16.112 12.273 11.156 9.214 10.247 21.932 6.079 30.022-4.189 8.13-14.069 16.291-28.111 12.539zm79.554 21.327c-3.244-.16-6.352 1.25-8.358 3.793s-2.657 5.903-1.744 9.012c.853 2.903 1.405 5.879 1.642 8.848.543 6.8-.495 13.514-3.018 19.735-17.527-4.677-30.615-19.985-32.098-38.563-.442-5.528.168-10.986 1.79-16.236 3.164-3.229 5.914-7.008 8.122-11.295.637-1.236 1.21-2.484 1.728-3.741 4.279-1.819 8.807-2.941 13.512-3.316 18.585-1.485 35.77 9.009 43.168 25.572-5.742 3.479-12.207 5.569-19.006 6.112-1.89.151-3.82.179-5.738.079z"/><path d="m165.574 290.681c-3.905 3.905-3.905 10.237 0 14.143l7.87 7.87c1.953 1.953 4.512 2.929 7.071 2.929s5.119-.976 7.071-2.929c3.905-3.905 3.905-10.237 0-14.143l-7.87-7.87c-3.905-3.905-10.237-3.905-14.142 0z"/><path d="m345.025 315.622c2.559 0 5.119-.976 7.071-2.929 3.905-3.905 3.905-10.237 0-14.143l-7.87-7.87c-3.905-3.905-10.237-3.905-14.143 0-3.905 3.905-3.905 10.237 0 14.143l7.87 7.87c1.954 1.953 4.513 2.929 7.072 2.929z"/><path d="m259.07 318.051-7.87 7.871c-3.905 3.905-3.905 10.237 0 14.142 1.953 1.953 4.512 2.929 7.071 2.929s5.119-.977 7.071-2.929l7.87-7.871c3.905-3.905 3.905-10.237 0-14.142s-10.237-3.906-14.142 0z"/><path d="m99.99 325.805-7.871 7.87c-3.905 3.905-3.906 10.237 0 14.142 1.953 1.953 4.512 2.929 7.071 2.929s5.118-.977 7.071-2.929l7.871-7.87c3.905-3.905 3.906-10.237 0-14.142-3.905-3.904-10.236-3.904-14.142 0z"/><path d="m412.075 347.818 7.871-7.87c3.905-3.905 3.906-10.237 0-14.142-3.905-3.905-10.236-3.905-14.142 0l-7.871 7.87c-3.905 3.905-3.906 10.237 0 14.142 1.953 1.953 4.512 2.929 7.071 2.929s5.118-.977 7.071-2.929z"/><circle cx="256.032" cy="398.982" r="10"/></g></g></svg>