<svg id="Capa_1" enable-background="new 0 0 512.007 512.007" height="512" viewBox="0 0 512.007 512.007" width="512" xmlns="http://www.w3.org/2000/svg"><g><path d="m383.036 185.204h-254.065c-54.468 0-102.059 36.794-115.774 89.506-16.071 61.77 30.548 122.072 94.375 122.072h296.863c63.827 0 110.447-60.301 94.375-122.072-13.715-52.713-61.306-89.506-115.774-89.506z" fill="#fff"/><g><path d="m473.115 235.933c-5.578 11.774-19.394 17.241-31.448 12.297-57.237-23.475-121.446-35.804-187.163-35.804s-129.926 12.33-187.163 35.804c-12.054 4.944-25.87-.523-31.448-12.297l-18.357-38.743c-6.043-12.754-.133-27.923 12.905-33.328 68.788-28.518 145.694-43.503 224.063-43.503s155.275 14.985 224.063 43.503c13.038 5.405 18.948 20.574 12.905 33.328z" fill="#ffdb85"/></g><path d="m282.962 115.225h-53.917c-5.104 0-9.242 4.138-9.242 9.242v272.315h72.4v-272.315c.001-5.104-4.137-9.242-9.241-9.242z" fill="#5993af"/><g><path d="m142.365 278.403-7.645-7.644c-3.906-3.905-10.238-3.905-14.143 0s-3.905 10.237 0 14.142l7.645 7.644c1.953 1.953 4.512 2.929 7.071 2.929s5.119-.977 7.071-2.929c3.906-3.905 3.906-10.237.001-14.142z"/><path d="m77.519 317.64-7.645 7.644c-3.905 3.905-3.905 10.237 0 14.142 1.953 1.953 4.512 2.929 7.071 2.929s5.118-.977 7.071-2.929l7.645-7.644c3.905-3.905 3.905-10.237 0-14.142s-10.235-3.905-14.142 0z"/><path d="m164.563 328.999h-10.811c-5.522 0-10 4.477-10 10s4.478 10 10 10h10.811c5.522 0 10-4.477 10-10s-4.478-10-10-10z"/><path d="m374.551 270.759-7.645 7.644c-3.905 3.905-3.905 10.237 0 14.142 1.953 1.953 4.512 2.929 7.071 2.929s5.118-.977 7.071-2.929l7.645-7.644c3.905-3.905 3.905-10.237 0-14.142s-10.234-3.904-14.142 0z"/><path d="m431.752 317.64c-3.906-3.905-10.238-3.905-14.143 0s-3.905 10.237 0 14.142l7.645 7.644c1.953 1.953 4.512 2.929 7.071 2.929s5.119-.977 7.071-2.929c3.905-3.905 3.905-10.237 0-14.142z"/><path d="m355.518 328.999h-10.811c-5.522 0-10 4.477-10 10s4.478 10 10 10h10.811c5.522 0 10-4.477 10-10s-4.477-10-10-10z"/><path d="m508.488 272.192c-4.138-15.904-11.114-30.608-20.744-43.78l12.765-26.941c4.095-8.642 4.456-18.316 1.019-27.241-3.401-8.83-10.374-15.977-19.131-19.607-57.686-23.915-119.885-38.297-184.949-42.781-3.53-4.045-8.708-6.617-14.486-6.617h-53.918c-5.676 0-10.77 2.485-14.295 6.408-66.208 4.222-129.486 18.675-188.136 42.991-8.758 3.63-15.73 10.777-19.132 19.607-3.438 8.924-3.076 18.599 1.019 27.241l13.963 29.469c-8.705 12.531-15.075 26.384-18.943 41.253-8.446 32.461-1.523 66.298 18.992 92.834s51.519 41.755 85.061 41.755h296.863c33.542 0 64.545-15.219 85.061-41.755s27.437-60.375 18.991-92.836zm-25.623-90.773c1.45 3.764 1.297 7.844-.43 11.488l-18.357 38.743c-3.328 7.025-11.505 10.242-18.616 7.327-44.669-18.32-92.824-29.874-143.258-34.405v-72.324c60.672 4.795 118.665 18.518 172.534 40.851 3.777 1.566 6.663 4.521 8.127 8.32zm-456.721 0c1.464-3.799 4.35-6.754 8.128-8.321 54.776-22.709 113.781-36.509 175.531-41.078v72.293c-51.512 4.33-100.676 15.97-146.256 34.664-7.11 2.914-15.289-.302-18.616-7.327l-18.357-38.743c-1.727-3.644-1.88-7.724-.43-11.488zm12.19 171.375c-16.699-21.6-22.334-49.143-15.459-75.566 2.487-9.56 6.192-18.624 11.059-27.076 6.469 6.341 15.188 9.903 24.191 9.903 4.347 0 8.759-.829 13.013-2.574 43.196-17.716 89.798-28.836 138.666-33.105v17.8c0 5.523 4.478 10 10 10s10-4.477 10-10v-116.951h52.4v261.557h-52.4v-54.605c0-5.523-4.478-10-10-10s-10 4.477-10 10v54.605h-102.232c-27.303 0-52.539-12.388-69.238-33.988zm435.339-.001c-16.699 21.6-41.936 33.988-69.238 33.988h-102.231v-162.13c47.788 4.462 93.382 15.487 135.668 32.83 4.255 1.745 8.665 2.574 13.013 2.574 9.889-.001 19.433-4.302 26.031-11.862 5.435 8.996 9.533 18.715 12.218 29.035 6.873 26.423 1.239 53.966-15.461 75.565z"/><circle cx="219.798" cy="287.176" r="10"/></g></g></svg>